<?xml version="1.0" standalone="no"?><!DOCTYPE svg PUBLIC "-//W3C//DTD SVG 1.1//EN" "http://www.w3.org/Graphics/SVG/1.1/DTD/svg11.dtd"><svg t="1556008875249" class="icon" style="" viewBox="0 0 1024 1024" version="1.1" xmlns="http://www.w3.org/2000/svg" p-id="2118" xmlns:xlink="http://www.w3.org/1999/xlink" width="81" height="81"><defs><style type="text/css"></style></defs><path d="M512 1024c-113.777778 0-221.866667-34.133333-307.2-102.4-39.822222-28.444444-45.511111-79.644444-17.066667-119.466667 28.444444-39.822222 79.644444-45.511111 119.466667-17.066666 56.888889 45.511111 130.844444 68.266667 204.8 68.266666 187.733333 0 341.333333-153.6 341.333333-341.333333s-153.6-341.333333-341.333333-341.333333-341.333333 153.6-341.333333 341.333333c0 45.511111-39.822222 85.333333-85.333334 85.333333S0 557.511111 0 512c0-284.444444 227.555556-512 512-512s512 227.555556 512 512-233.244444 512-512 512z" p-id="2119" fill="#1296db"></path></svg>